<svg viewBox="0 0 24 24" xmlns="http://www.w3.org/2000/svg" class="w-5 h-5 pointer-events-none"><path d="M16.5 4a4.5 4.5 0 014.495 4.288L21 8.5v7a4.5 4.5 0 01-4.288 4.495L16.5 20h-9a4.5 4.5 0 01-4.495-4.288L3 15.5v-7a4.5 4.5 0 014.288-4.495L7.5 4h9zm0 1.5h-9a3 3 0 00-2.995 2.824L4.5 8.5v7a3 3 0 002.824 2.995l.176.005h9a3 3 0 002.995-2.824l.005-.176v-7a3 3 0 00-2.824-2.995L16.5 5.5zm-.75 9a.75.75 0 01.102 1.492l-.101.007h-2.252a.75.75 0 01-.101-1.492l.101-.007h2.252zM8.03 9.599a.75.75 0 01.976-.073l.084.073 2.121 2.12a.75.75 0 01.073.977l-.072.084L9.09 14.9a.75.75 0 01-1.133-.976l.073-.084L9.62 12.25 8.03 10.659a.75.75 0 010-1.06z" fill="#68717a" fill-rule="evenodd"></path></svg>